<svg xmlns="http://www.w3.org/2000/svg" xmlns:xlink="http://www.w3.org/1999/xlink" viewBox="0 0 262.66 262.66"><defs><style>.cls-1{fill:#35a8e0;}.cls-2{fill:#78909c;}.cls-3{fill:#37474f;}.cls-4{fill:#b0bec5;}.cls-5{clip-path:url(#clip-path);}.cls-6{fill:#1d70b7;}.cls-7{fill:#bd1622;}.cls-8{fill:#e20613;}.cls-9{fill:#423951;}</style><clipPath id="clip-path"><circle class="cls-1" cx="138.3" cy="98.75" r="68.17"/></clipPath></defs><g id="Camada_2" data-name="Camada 2"><g id="Camada_1-2" data-name="Camada 1"><g id="Layer_2" data-name="Layer 2"><g id="Layer_1-2" data-name="Layer 1-2"><rect class="cls-2" width="262.66" height="196.99" rx="16.42"/><rect class="cls-3" x="16.42" y="16.42" width="229.82" height="164.16"/><path class="cls-4" d="M16.42,197H246.24a16.42,16.42,0,0,1-16.42,16.42h-197A16.42,16.42,0,0,1,16.42,197Z"/><rect class="cls-2" x="98.5" y="213.41" width="65.66" height="49.25"/><path class="cls-4" d="M73.87,246.24H188.78a16.42,16.42,0,0,1,16.42,16.42H57.46A16.42,16.42,0,0,1,73.87,246.24Z"/></g><circle class="cls-1" cx="138.3" cy="98.75" r="68.17"/><g class="cls-5"><path class="cls-6" d="M81.35,97.34a3,3,0,0,1-1.15,0,1.06,1.06,0,0,0-.56,0c-.12.07-.19.2-.35.26a4.11,4.11,0,0,0-.8.43,1.07,1.07,0,0,0-.44.6,14,14,0,0,0-.22,1.58c-.19.85-.74,1.12-1.35,1.73A12,12,0,0,0,74,105.73c-.23.75.09,1.42-.06,2.15-.18.92-.9,1.19-.09,2.14.5.59,1,.7,1.3,1.46a5.75,5.75,0,0,0,1.11,2.06c1.11,1.25,2.19,2.92,3.95,2.17,1.5-.65,3.29,0,4.72-.69.66-.32.89-.76,1.71-.79a1.92,1.92,0,0,1,1.74.49c.21.23.17.55.49.77s.94.16,1.38.2c.76.06,2,.16,2.23,1s-.77,1.15-1.05,1.88.12,1.25.62,1.74c1.09,1.08,2.45,2.62,2.06,4.28-.35,1.5-1.63,2.37-1.29,4.11s1.69,3.17,2.42,4.63a15.23,15.23,0,0,1,1,2.32c.24.74.23,1.53.43,2.24.5,1.75,2.31.94,3.44.53.84-.3,1.75-.07,2.57-.38a7.41,7.41,0,0,0,2.15-1.45c1.21-1.08.87-3.26,2.47-3.7.92-.26,1.09-.25,1.13-1.36,0-.95-.18-1.63.71-2.16s1.8-.63,2.38-1.72c.67-1.27-.09-1.74-.5-3a10.72,10.72,0,0,1-.27-3.34c0-1.38,1-2.15,2-3a42.22,42.22,0,0,1,4.71-4.28c.8-.54,1.51-.9,1.55-2,0-1.46-1.5-.66-2.39-.38a4.06,4.06,0,0,1-3.1,0c-1.08-.56-.87-1.43-1.39-2.37s-1.73-.81-2.37-1.64a9.09,9.09,0,0,1-.63-1.75,13.07,13.07,0,0,1-.57-2.06,31.21,31.21,0,0,0-.94-3.17c-.46-1.22-1.23-1.32-2.42-1.42-1.56-.12-2.67.24-4-.62a2.88,2.88,0,0,0-3.43,0c-1,.56-1.77,1.29-3,1.06-1-.2-1.46-1.26-2.24-1.79S91,97.35,90.3,97a3.73,3.73,0,0,0-2.68-.48c-.35,0-.77.3-1.14.16-.7-.26-.38-.73-.68-1.21-.42-.66-1.13-.47-1.87-.17a5.76,5.76,0,0,0-1.55.77C81.88,96.57,82.2,97.05,81.35,97.34Z"/><path class="cls-6" d="M118.77,127.1a.85.85,0,0,0-.25-.55.84.84,0,0,1-.16-.69.78.78,0,0,0-.27-.77c-.28-.24-.47-.14-.62.18a4.26,4.26,0,0,0-.15.47c-.07.18-.17.35-.24.53a2.3,2.3,0,0,1-.5.8,1.48,1.48,0,0,1-.92.37c-.38,0-.6-.07-.78.32a3.74,3.74,0,0,0-.12.45,4.55,4.55,0,0,0-.21.51c0,.16,0,.32,0,.48a1.73,1.73,0,0,1-.21.53,2.59,2.59,0,0,0-.24,1,4.05,4.05,0,0,0-.07,1.15,1.51,1.51,0,0,0,1.7,1.18c.42-.13.77-.81.93-1.18a4,4,0,0,0,.36-1.57,1.92,1.92,0,0,1,.07-.68,1.63,1.63,0,0,1,.33-.49,2.06,2.06,0,0,0,.23-.41.7.7,0,0,1,.32-.34h0l.27-.17a1.75,1.75,0,0,0,.37-.35A1.14,1.14,0,0,0,118.77,127.1Z"/><path class="cls-6" d="M124.22,103.81c-.75-.22-1.11-1-1.49-1.57a2.46,2.46,0,0,0-.68-.79l-.42-.29c-.17-.13-.22,0-.32.18a1,1,0,0,0-.09.71,5.22,5.22,0,0,0,.19.78,2.67,2.67,0,0,0,.2.46,1.85,1.85,0,0,0,.36.38,6.12,6.12,0,0,1,.54.79c.17.25.41.46.57.72a1.26,1.26,0,0,1,.19.78,1.41,1.41,0,0,1-.17.69,4.27,4.27,0,0,1-.83.55,20.57,20.57,0,0,1-2.21,1.21,14,14,0,0,1-2.58,1,4.68,4.68,0,0,1-2.23.14c-1.81-.46-4.44-4.46-5.11-6.05-.83-2-1.56-5.09-3.6-6.53-2.32-1.63-5-.44-6.61-3.34-.44-.82-.68-2.25-1.63-2.66s-2.76.5-4,.55c-1,0-.94.26-1.71-.34-.57-.44-.29-1.24-1-1.38s-2.46,1.34-3.27,1.55c-1.29.35-3.13-.45-4.12.35s-.82,2.21-2.09,2.88-2.92.58-3-1.17c-.09-1.17,1.25-3,2-3.78A6.71,6.71,0,0,1,84,87.85c.2-1.34-3.76-1.4-1.17-2.76,1.39-.73,3.18.19,4.6-.85.74-.55,1.06-1.76,2-2.16a7.44,7.44,0,0,1,2.54,0c1.8.09,3.63.41,5.46.32.63-2.13,1.21-3,3.29-3.41,1.59-.32,4.33.35,3.75-2.2-1.17-.28-7.28,2.27-4.65-1.79.39-.59,2.69-1.43,2.15-2.24-.16-.25-1.64-.21-1.93-.12-1.11.34-.85.67-1.55,1.56-.34.43-1.05.79-1.33,1.23-.75,1.16-.12,1.15,0,1.85s.3.34,0,1.33c0,.17-.79,1.41-.9,1.59-.85,1.3-1.44,1.69-2.75.2-.22-.24-.68-1.14-.81-1.23-.93-.64-.47-.08-1.55,0s-2.8.17-3.1-1.58,1.79-2.55,3-3.44a34,34,0,0,0,4.43-3.74c1.15-1.29,1.4-2.84,3.25-3.6,3-1.22,4.9,1.15,7.75.85a3.84,3.84,0,0,1,3.57,1c1,.67,2.93.93,2.58,2.44-.05.2,0,.45,0,.66-1.13.07-2.22-1.1-3.41-.66-.83.3-1.86,2.48-1,3.31,1.19,1.2,2.37-.6,3.15-1.21a9.17,9.17,0,0,1,3.52-1.42c1-.27,2.19-1.17,3.29-1.51s2.73.32,4-.06c.9-.27,1.23-1.29,2.25-1,.33.07.54.95,1,1.08,1.9.53,1.43-1.32.15-1.89,2.47-2,4.18,4.79,5.65,1a7.13,7.13,0,0,0,.18-1.89c0-.34-.5-.4-.29-.85s1.07-.37,1.38-.69,1-2.68,1.87-1.55c.2.26-.38,3-.35,3.61a6,6,0,0,1,0,1.89c-.28.71-1.17.74-1.41,1.37s-.29.94.72,1,1.07-.47,1.55-1.21,1.11-2.66,2.38-1c-.15-1.08-1.73-1.67-1.7-2.72,0-1.34,1.51-1.32,2.36-1.16s1.78,1.28,2.62,1.15c1.78-.27.34-1.68,0-2.72,1.24-.33,2.42.56,3.42.32,1.25-.31.77-1.45,1.71-2.1.79-.55,2.54-.39,3.43-.52,1.17-.17,2.25-.64,3.41-.84-.08-1.49,1.32-1.88,2.58-1.66-.14,1.87,1.76.82,2.77.82,1.47,0,1.9.69,2.93,1.55-1.18,1.33-3.73,1.36-4.69,2.92-1.58,2.6,2,.61,3,.3,1.36-.44,3.83.05,5.33.21,2.27.24,4.34,1.6,6.5,2-.41-.73-1.6-2.62.68-1.49.28,1.85,1.47,1.52,3.12,1.52,1.89,0,3.66.33,5.49-.13,1.51-.38,2.71-1,4.43-.73,1.38.19,2.73,1.57,4,.32.86,1.69,3.12.46,4.64.91.79.24,1.28,1.06,2,1.35,1.15.42,2.32-.2,3.45,0,.46.08.8.62,1.36.7s1.61-.06,2.23,0c1.46.06,2.93-.62,4.32-.49,1.81.16,4,1.45,5.69,2.09,1.08-.47,1.44,1,.46,1.7a7,7,0,0,1-1.54.35c-.9-.07-.94-.51-1.41-.66a3.22,3.22,0,0,0-3.23.31c-1.5,1-1,1.5-1,3.06-1.57.61-3.51-.08-5.12.5-1.21.43-3.28.77-4.17,1.58s-1,2.22-1.7,3.1A11.22,11.22,0,0,1,191,84.26c-1.68-3.71,2.58-6.32,4.78-8.22-.86-1.22-1.08.36-1.94.48-1,.14-1.16-.61-2-.65-2.32-.12-2.34,2.74-4.47,2.91-2.47.2-4.22-.92-6.74.17-1.53.67-3.81,1.72-3.36,3.75,1.4.23,3.19-.92,3.41,1.06.15,1.36-1.34,2.54-2.19,3.48-1,1.11-1.37,2.45-2.22,3.56-1.15,1.49-2.71.67-4.14,1.71-.47.35-.35.89-1.06,1.21-1.12.48-.78-.37-1.5-.4a2.44,2.44,0,0,0-1.73.56c-.3.19-.05.78-.33.92-.45.22-.87-.23-1.38,0-3.29,1.15.59,4.8-.43,7-.3.68-.89,1.06-1,1.72s.39,1.34.32,2c-.74,0-2.39.34-3.06,0-1-.48-.58-1.36-2.23-1.2-2.13.2-3.92,2.66-2.4,4.42.77.9,1.87.61,1.72,2.1-.08.76-1.57,2.13-2.25,2.41-1.06.43-1.19.32-2.09-.82a6.78,6.78,0,0,1-1.19-2.25c-.82.09-1.9,1.66-1.49,2.55.6,1.29,2.29.81,2.72,2.57.31,1.27-.17,3-1.5,2.06-.46-.33-.39-1.13-.73-1.53-.56-.67-1-.56-1.68-1.09-2.38-1.92.12-6-1.76-7.46-1.15-.91-2.59,0-3.65-1.41-.75-1-.34-2.54-1.81-2.9-.07,1.18.29,2.94-.4,3.87s-2.28,1.27-3.09,2.28-1.61,9.08-3.39,4.64a26.42,26.42,0,0,0-2.45-5.11c-.84-1.26-1.92-1.73-2.84-2.86-1.21-1.49-.78-2.22-3.09-2.33C127.15,103.44,125.16,104.09,124.22,103.81Z"/><path class="cls-6" d="M187.06,132.76c-.65-.8-1.22-1.73-1.94-2.46s-1.34-.65-2-1.06c-1.57-.91,0-3.2-1.11-4.26-.2-.19-.42-.42-.71-.39-.46,0-.32.17-.44.58a5.42,5.42,0,0,1-.93,2.06c-.3.42-.8,1.59-1.25,1.82-.73.37-1.34-.77-1.55-1.31-.09-.24-.21-.57-.28-.82a7.38,7.38,0,0,1-.12-.79c-.11-.55-.9-1-1.47-1.09a4.18,4.18,0,0,0-1.68.27c-.81.31-.79.83-1,1.55-.62,1.84-1.84-.9-3.09.37-.45.44-.66,1-1.15,1.43s-.76.51-1.09.84-.45.75-1.05.88c-.59.28-2.47.06-3,.13a3.91,3.91,0,0,0-1.9,1.29c-1.33,1.23.09,2.51.68,3.73a4.44,4.44,0,0,1,.3,2.05c-.05.48-.81,1.5-.46,1.94.54.67,1.86-.26,2.31-.58.9-.64,1.42-.45,2.44-.51s1.86-.47,2.87-.52,2-.42,3.09-.51a2.27,2.27,0,0,1,1.54.22c.48.21.87,0,1.55.67.39.59-.28,1,.25,1.29.88.41.87-1.14,1.6-1.43.88-.35,1,.56,1.17,1.11.6,1.53.88,2.65,2.3,2.64s3.66.6,4.67-.32a16.58,16.58,0,0,0,1.88-3.41c.25-.57.68-.81.92-1.3C189.17,135.27,188,133.93,187.06,132.76Z"/><path class="cls-6" d="M164.09,114.57c-.85-1.9-1.38,1-2.22,1.48-.59.34-1.29.14-1.84.64-.25.23-.29.71-.56.89s-.71,0-1.05.08c-1.08.27-.77.72.09,1a2.43,2.43,0,0,1,1,.39c.26.26.1.56.51.8.6.34,1.47-.13,2,0,.34.08.14.54.63.44.33-.07.51-.71.57-1,.13-.52-.1-.92.28-1.36s.86-.19.93-.77c-.59-.36-1.26-.36-.76-1,.38-.49,1.28-.43,1.54-1a6,6,0,0,1-1.18-.29,1.22,1.22,0,0,1,0-.33"/><path class="cls-6" d="M186.23,124.18c-.36-1.2-1.67-.93-2.12-1.39s-.22-.53-.46-1.1-.62-.6-1.19-.85c-1.43-.63-3.56-1.9-5.15-1.54-.31.07-.87.61-1.21.5s-.54-.87-.88-1.1c-.51-.34-1.76-.5-1.95.08-.28.81,1,1.42,1.58,1.6a7.88,7.88,0,0,1,1.25.29c.41.26.29.75.86.94a10.68,10.68,0,0,0,1.7,0c.06.8-.43,1.75.62,2.12s1.45-.29,2.14-.65.48-.23,1.11.19c.3.2.57.44.87.63a3.71,3.71,0,0,0,2.81.75A1.39,1.39,0,0,0,186.23,124.18Z"/></g><circle class="cls-7" cx="149.03" cy="86.95" r="3.45"/><rect class="cls-7" x="152.25" y="85.46" width="0.96" height="0.3" transform="translate(-20.03 57.13) rotate(-19.91)"/><rect class="cls-7" x="144.86" y="88.13" width="0.96" height="0.3" transform="translate(-21.38 54.77) rotate(-19.91)"/><path class="cls-7" d="M153.54,85.62a.29.29,0,0,1-.36-.17.29.29,0,0,1,.17-.37.29.29,0,0,1,.36.17A.29.29,0,0,1,153.54,85.62Z"/><path class="cls-7" d="M153.45,85.69a.34.34,0,0,1-.32-.22.35.35,0,0,1,.2-.44.34.34,0,0,1,.43.2.33.33,0,0,1,0,.26.31.31,0,0,1-.19.18Zm0-.57-.08,0a.24.24,0,0,0-.13.11.23.23,0,0,0,0,.18.23.23,0,0,0,.42,0,.23.23,0,0,0-.2-.33Z"/><circle class="cls-7" cx="144.62" cy="88.55" r="0.28"/><path class="cls-7" d="M144.62,88.88a.35.35,0,0,1-.32-.22.34.34,0,0,1,0-.26.29.29,0,0,1,.19-.17.34.34,0,0,1,.42.46.35.35,0,0,1-.19.17A.25.25,0,0,1,144.62,88.88Zm0-.56h-.07a.2.2,0,0,0-.13.12.2.2,0,0,0,0,.17.23.23,0,0,0,.29.14.22.22,0,0,0,.13-.12.25.25,0,0,0,0-.17A.24.24,0,0,0,144.62,88.32Z"/><rect class="cls-7" x="150.08" y="83.17" width="0.96" height="0.3" transform="translate(15.42 189.86) rotate(-67.21)"/><rect class="cls-7" x="147.03" y="90.42" width="0.96" height="0.3" transform="translate(6.88 191.49) rotate(-67.21)"/><path class="cls-7" d="M151.11,82.73a.28.28,0,0,1-.37.15.28.28,0,0,1-.15-.37.28.28,0,1,1,.52.22Z"/><path class="cls-7" d="M150.85,83a.31.31,0,0,1-.13,0,.32.32,0,0,1-.18-.18.3.3,0,0,1,0-.26.34.34,0,0,1,.44-.18.33.33,0,0,1,.18.44A.33.33,0,0,1,150.85,83Zm0-.56a.23.23,0,0,0-.21.13.28.28,0,0,0,0,.18.23.23,0,1,0,.3-.3Z"/><path class="cls-7" d="M147.48,91.38a.28.28,0,0,1-.37.15.28.28,0,0,1-.15-.37.28.28,0,0,1,.37-.15A.29.29,0,0,1,147.48,91.38Z"/><path class="cls-7" d="M147.22,91.61l-.13,0a.35.35,0,0,1-.19-.45.37.37,0,0,1,.32-.21.31.31,0,0,1,.13,0,.34.34,0,0,1,.18.19.36.36,0,0,1,0,.25A.34.34,0,0,1,147.22,91.61Zm0-.56a.22.22,0,0,0-.09.43.24.24,0,0,0,.3-.12.25.25,0,0,0,0-.17.27.27,0,0,0-.13-.13Z"/><rect class="cls-7" x="147.35" y="82.85" width="0.3" height="0.96" transform="translate(-20.82 64.14) rotate(-22.96)"/><rect class="cls-7" x="150.42" y="90.09" width="0.3" height="0.96" transform="translate(-23.4 65.91) rotate(-22.96)"/><path class="cls-7" d="M147.46,82.52a.28.28,0,0,1-.15.37.29.29,0,0,1-.37-.15.28.28,0,0,1,.15-.37A.28.28,0,0,1,147.46,82.52Z"/><path class="cls-7" d="M147.2,83a.35.35,0,0,1-.31-.21.39.39,0,0,1,0-.26.32.32,0,0,1,.18-.18.31.31,0,0,1,.13,0,.35.35,0,0,1,.32.21.34.34,0,0,1-.18.44A.35.35,0,0,1,147.2,83Zm0-.57-.08,0a.25.25,0,0,0-.13.12.23.23,0,0,0,0,.18.23.23,0,0,0,.29.12.23.23,0,0,0,.12-.3A.23.23,0,0,0,147.2,82.4Z"/><path class="cls-7" d="M151.12,91.16a.27.27,0,0,1-.15.37.29.29,0,0,1-.37-.15.28.28,0,0,1,.15-.37A.28.28,0,0,1,151.12,91.16Z"/><path class="cls-7" d="M150.86,91.61a.35.35,0,0,1-.31-.21.34.34,0,0,1,.18-.44.34.34,0,0,1,.45.18.36.36,0,0,1,0,.25.37.37,0,0,1-.18.19A.35.35,0,0,1,150.86,91.61Zm0-.57-.08,0a.22.22,0,0,0-.12.3.23.23,0,0,0,.29.12.22.22,0,0,0,.12-.13.17.17,0,0,0,0-.17A.22.22,0,0,0,150.86,91Z"/><rect class="cls-7" x="145.24" y="84.99" width="0.3" height="0.96" transform="translate(11.38 187.86) rotate(-67.83)"/><rect class="cls-7" x="152.52" y="87.95" width="0.3" height="0.96" transform="translate(13.17 196.44) rotate(-67.83)"/><path class="cls-7" d="M144.8,84.92a.27.27,0,0,1,.15.36.28.28,0,0,1-.37.16.28.28,0,0,1,.22-.52Z"/><path class="cls-7" d="M144.69,85.52a.31.31,0,0,1-.13,0,.32.32,0,0,1-.18-.18.3.3,0,0,1,0-.26.33.33,0,0,1,.62,0,.3.3,0,0,1,0,.26A.34.34,0,0,1,144.69,85.52Zm0-.57a.23.23,0,0,0-.21.14.23.23,0,0,0,.12.3.24.24,0,0,0,.3-.13.25.25,0,0,0,0-.17.22.22,0,0,0-.13-.12Z"/><path class="cls-7" d="M153.49,88.46a.28.28,0,0,1,.15.36.28.28,0,0,1-.37.16.28.28,0,0,1,.22-.52Z"/><path class="cls-7" d="M153.38,89.06a.31.31,0,0,1-.13,0,.33.33,0,0,1-.18-.44.35.35,0,0,1,.44-.19.34.34,0,0,1,.18.19.3.3,0,0,1,0,.26A.34.34,0,0,1,153.38,89.06Zm0-.57a.23.23,0,0,0-.09.44.24.24,0,0,0,.3-.13.25.25,0,0,0,0-.17.22.22,0,0,0-.13-.12Z"/><rect class="cls-7" x="145.78" y="89.57" width="0.96" height="0.3" transform="translate(-20.61 129.68) rotate(-44.99)"/><rect class="cls-7" x="151.33" y="84.02" width="0.96" height="0.3" transform="translate(-15.06 131.97) rotate(-44.99)"/><path class="cls-7" d="M145.52,90.07a.28.28,0,0,1,.4,0,.27.27,0,0,1,0,.39.27.27,0,0,1-.4,0A.27.27,0,0,1,145.52,90.07Z"/><path class="cls-7" d="M145.72,90.6a.31.31,0,0,1-.24-.1.33.33,0,0,1,0-.47.34.34,0,0,1,.48,0,.33.33,0,0,1,.1.24.34.34,0,0,1-.34.33Zm0-.56a.2.2,0,0,0-.16.07.22.22,0,0,0,0,.32.24.24,0,0,0,.32,0,.22.22,0,0,0,0-.32A.21.21,0,0,0,145.72,90Z"/><path class="cls-7" d="M152.15,83.43a.28.28,0,1,1,0,.4A.28.28,0,0,1,152.15,83.43Z"/><path class="cls-7" d="M152.35,84a.37.37,0,0,1-.24-.1.34.34,0,0,1,0-.48.34.34,0,1,1,.48.48A.35.35,0,0,1,152.35,84Zm0-.57a.24.24,0,0,0-.16.07.24.24,0,0,0,0,.32.23.23,0,0,0,.32-.32A.24.24,0,0,0,152.35,83.4Z"/><rect class="cls-7" x="151.66" y="89.25" width="0.3" height="0.96" transform="translate(-18.98 133.62) rotate(-45)"/><rect class="cls-7" x="146.1" y="83.69" width="0.3" height="0.96" transform="translate(-16.68 128.07) rotate(-45)"/><path class="cls-7" d="M152.15,90.46a.27.27,0,0,1,0-.39.28.28,0,0,1,.4,0,.27.27,0,0,1,0,.39A.27.27,0,0,1,152.15,90.46Z"/><path class="cls-7" d="M152.35,90.6a.33.33,0,0,1-.24-.1.33.33,0,0,1,0-.47.34.34,0,0,1,.48,0,.33.33,0,0,1,0,.47A.31.31,0,0,1,152.35,90.6Zm0-.56a.2.2,0,0,0-.16.07.22.22,0,0,0,0,.32.24.24,0,0,0,.32,0,.22.22,0,0,0,0-.32A.2.2,0,0,0,152.35,90Z"/><path class="cls-7" d="M145.52,83.83a.28.28,0,1,1,.4,0A.28.28,0,0,1,145.52,83.83Z"/><path class="cls-7" d="M145.72,84a.35.35,0,0,1-.24-.1.34.34,0,1,1,.48-.48.34.34,0,0,1,0,.48A.37.37,0,0,1,145.72,84Zm0-.57a.24.24,0,0,0-.16.07.23.23,0,0,0,.32.32.24.24,0,0,0,0-.32A.26.26,0,0,0,145.72,83.4Z"/><rect class="cls-7" x="152.49" y="86.8" width="0.96" height="0.3"/><rect class="cls-7" x="144.63" y="86.8" width="0.96" height="0.3"/><path class="cls-7" d="M153.73,87.23a.29.29,0,0,1-.29-.28.29.29,0,0,1,.57,0A.29.29,0,0,1,153.73,87.23Z"/><path class="cls-7" d="M153.73,87.29a.34.34,0,0,1-.34-.34.34.34,0,1,1,.67,0A.34.34,0,0,1,153.73,87.29Zm0-.57a.23.23,0,1,0,0,.45A.22.22,0,0,0,154,87,.22.22,0,0,0,153.73,86.72Z"/><path class="cls-7" d="M144.34,87.23a.29.29,0,0,1-.28-.28.29.29,0,0,1,.57,0A.29.29,0,0,1,144.34,87.23Z"/><path class="cls-7" d="M144.34,87.29A.35.35,0,0,1,144,87a.34.34,0,0,1,.34-.34.34.34,0,0,1,.34.34A.34.34,0,0,1,144.34,87.29Zm0-.57a.22.22,0,0,0-.22.23.22.22,0,0,0,.22.22.23.23,0,1,0,0-.45Z"/><rect class="cls-7" x="148.88" y="82.54" width="0.3" height="0.96"/><rect class="cls-7" x="148.88" y="90.4" width="0.3" height="0.96"/><path class="cls-7" d="M149.32,82.26A.29.29,0,1,1,149,82,.29.29,0,0,1,149.32,82.26Z"/><path class="cls-7" d="M149,82.6a.34.34,0,0,1-.33-.34.34.34,0,1,1,.67,0A.34.34,0,0,1,149,82.6Zm0-.57a.22.22,0,0,0-.22.23.22.22,0,0,0,.22.22.23.23,0,1,0,0-.45Z"/><path class="cls-7" d="M149.32,91.64a.29.29,0,1,1-.29-.28A.28.28,0,0,1,149.32,91.64Z"/><path class="cls-7" d="M149,92a.34.34,0,1,1,.34-.34A.34.34,0,0,1,149,92Zm0-.57a.22.22,0,0,0-.22.23.23.23,0,1,0,.45,0A.23.23,0,0,0,149,91.41Z"/><path class="cls-8" d="M148.07,88.89a.38.38,0,0,1-.54-.07l-.7-.92a.38.38,0,0,1,.07-.54h0a.39.39,0,0,1,.55.07l.7.91a.4.4,0,0,1-.08.55Z"/><path class="cls-8" d="M147.37,85.4a.39.39,0,0,1,.16-.53l1-.53a.39.39,0,0,1,.52.17h0a.39.39,0,0,1-.16.53l-1,.53a.39.39,0,0,1-.52-.17Z"/><path class="cls-8" d="M147.33,86.34a.49.49,0,0,1-.48.48.48.48,0,0,1-.48-.48.47.47,0,0,1,.48-.48A.48.48,0,0,1,147.33,86.34Z"/><path class="cls-8" d="M151.54,88.12a.68.68,0,1,1-1.35,0,.68.68,0,0,1,1.35,0Z"/><path class="cls-8" d="M151.46,86.56a.32.32,0,1,1-.31-.31A.31.31,0,0,1,151.46,86.56Z"/><path class="cls-8" d="M149.91,89a.59.59,0,0,1-.59.6.6.6,0,0,1-.6-.6.59.59,0,0,1,.6-.59A.58.58,0,0,1,149.91,89Z"/><circle class="cls-8" cx="150.37" cy="85.28" r="0.48"/><circle class="cls-8" cx="149.03" cy="86.82" r="0.7"/><circle class="cls-7" cx="158.89" cy="94.87" r="4.47" transform="translate(26.42 224.09) rotate(-75.13)"/><rect class="cls-7" x="163.06" y="92.94" width="1.24" height="0.39" transform="translate(-21.93 61.29) rotate(-19.9)"/><rect class="cls-7" x="153.48" y="96.41" width="1.24" height="0.39" transform="translate(-23.69 58.26) rotate(-19.91)"/><path class="cls-7" d="M164.74,93.14a.37.37,0,0,1-.25-.69.38.38,0,0,1,.47.22A.37.37,0,0,1,164.74,93.14Z"/><path class="cls-7" d="M164.61,93.24a.44.44,0,0,1-.41-.29.43.43,0,0,1,.26-.56.44.44,0,0,1,.55.6.45.45,0,0,1-.25.22A.4.4,0,0,1,164.61,93.24Zm0-.73h-.1a.3.3,0,0,0-.17.38.28.28,0,0,0,.37.17.29.29,0,0,0,.18-.37A.28.28,0,0,0,164.61,92.51Z"/><path class="cls-7" d="M153.3,97.28a.36.36,0,1,1-.25-.68.37.37,0,0,1,.47.22A.35.35,0,0,1,153.3,97.28Z"/><path class="cls-7" d="M153.17,97.38a.44.44,0,0,1-.39-.63.43.43,0,0,1,.24-.22.45.45,0,0,1,.57.26.44.44,0,0,1-.27.56A.33.33,0,0,1,153.17,97.38Zm0-.73h-.1a.31.31,0,0,0-.17.38.29.29,0,1,0,.55-.2A.28.28,0,0,0,153.17,96.65Z"/><rect class="cls-7" x="160.25" y="89.98" width="1.24" height="0.39" transform="translate(15.43 203.56) rotate(-67.21)"/><rect class="cls-7" x="156.3" y="99.37" width="1.24" height="0.39" transform="translate(4.33 205.65) rotate(-67.2)"/><path class="cls-7" d="M161.59,89.4a.37.37,0,0,1-.68-.28.37.37,0,0,1,.48-.2A.37.37,0,0,1,161.59,89.4Z"/><path class="cls-7" d="M161.25,89.7a.43.43,0,0,1-.41-.27.5.5,0,0,1,0-.34.45.45,0,0,1,.41-.27.35.35,0,0,1,.17,0,.43.43,0,0,1,.24.24.42.42,0,0,1,0,.33A.41.41,0,0,1,161.25,89.7Zm0-.73a.28.28,0,0,0-.27.18.28.28,0,0,0,0,.22.25.25,0,0,0,.16.16.3.3,0,0,0,.38-.15.3.3,0,0,0,0-.23.31.31,0,0,0-.16-.16Z"/><path class="cls-7" d="M156.87,100.62a.35.35,0,0,1-.47.19.35.35,0,0,1-.2-.47.36.36,0,0,1,.48-.2A.36.36,0,0,1,156.87,100.62Z"/><path class="cls-7" d="M156.54,100.92a.47.47,0,0,1-.17,0,.41.41,0,0,1-.24-.24.47.47,0,0,1,0-.33.45.45,0,0,1,.58-.24.42.42,0,0,1,.23.24.4.4,0,0,1,0,.34A.45.45,0,0,1,156.54,100.92Zm0-.74a.28.28,0,0,0-.27.18.3.3,0,0,0,0,.23.29.29,0,0,0,.15.16.3.3,0,0,0,.39-.16.29.29,0,0,0-.16-.38A.23.23,0,0,0,156.54,100.18Z"/><rect class="cls-7" x="156.71" y="89.56" width="0.39" height="1.24" transform="translate(-22.75 68.36) rotate(-22.96)"/><rect class="cls-7" x="160.68" y="98.94" width="0.39" height="1.24" transform="translate(-26.09 70.65) rotate(-22.96)"/><path class="cls-7" d="M156.86,89.13a.37.37,0,1,1-.48-.2A.37.37,0,0,1,156.86,89.13Z"/><path class="cls-7" d="M156.52,89.71a.43.43,0,0,1-.4-.27.45.45,0,0,1,0-.34.51.51,0,0,1,.24-.24.44.44,0,0,1,.57.24.43.43,0,0,1-.23.57A.33.33,0,0,1,156.52,89.71Zm0-.73a.2.2,0,0,0-.11,0,.29.29,0,0,0-.16.38.29.29,0,0,0,.38.16.29.29,0,0,0-.11-.56Z"/><path class="cls-7" d="M161.6,100.33a.37.37,0,0,1-.19.48.36.36,0,0,1-.48-.2.37.37,0,0,1,.19-.48A.36.36,0,0,1,161.6,100.33Z"/><path class="cls-7" d="M161.27,100.91a.45.45,0,0,1-.41-.27.44.44,0,0,1,.81-.34.38.38,0,0,1,0,.33.39.39,0,0,1-.23.24A.38.38,0,0,1,161.27,100.91Zm0-.73a.25.25,0,0,0-.12,0,.28.28,0,0,0-.15.38.29.29,0,0,0,.38.16.31.31,0,0,0,.16-.16.28.28,0,0,0,0-.22A.3.3,0,0,0,161.27,100.18Z"/><rect class="cls-7" x="153.98" y="92.33" width="0.39" height="1.24" transform="translate(9.92 200.65) rotate(-67.83)"/><rect class="cls-7" x="163.41" y="96.17" width="0.39" height="1.24" transform="translate(12.23 211.78) rotate(-67.83)"/><path class="cls-7" d="M153.4,92.24a.35.35,0,0,1,.2.47.36.36,0,0,1-.48.2.37.37,0,0,1-.2-.47A.36.36,0,0,1,153.4,92.24Z"/><path class="cls-7" d="M153.26,93a.51.51,0,0,1-.17,0,.44.44,0,0,1-.24-.57.45.45,0,0,1,.58-.24.49.49,0,0,1,.24.23.5.5,0,0,1,0,.34A.43.43,0,0,1,153.26,93Zm0-.73a.28.28,0,0,0-.27.18.29.29,0,1,0,.54,0,.31.31,0,0,0-.16-.16Z"/><path class="cls-7" d="M164.66,96.83a.36.36,0,1,1-.47.2A.35.35,0,0,1,164.66,96.83Z"/><path class="cls-7" d="M164.53,97.6a.47.47,0,0,1-.17,0,.45.45,0,0,1-.24-.23.44.44,0,0,1,.57-.58.44.44,0,0,1-.16.84Zm0-.73a.31.31,0,0,0-.28.18.26.26,0,0,0,0,.23.29.29,0,0,0,.15.16.31.31,0,0,0,.39-.16.3.3,0,0,0-.16-.39Z"/><rect class="cls-7" x="154.67" y="98.28" width="1.24" height="0.39" transform="translate(-24.15 138.63) rotate(-44.99)"/><rect class="cls-7" x="161.88" y="91.07" width="1.24" height="0.39" transform="translate(-16.94 141.64) rotate(-45)"/><circle class="cls-7" cx="154.59" cy="99.17" r="0.37"/><path class="cls-7" d="M154.59,99.61a.44.44,0,1,1,.31-.75.43.43,0,0,1,0,.62A.44.44,0,0,1,154.59,99.61Zm0-.73a.3.3,0,0,0-.21.5.31.31,0,0,0,.42,0,.29.29,0,0,0,0-.42A.32.32,0,0,0,154.59,98.88Z"/><path class="cls-7" d="M162.93,90.31a.37.37,0,0,1,.52,0,.36.36,0,0,1,0,.52.37.37,0,0,1-.52-.52Z"/><path class="cls-7" d="M163.19,91a.48.48,0,0,1-.31-.13.44.44,0,1,1,.62-.62.43.43,0,0,1,0,.62A.44.44,0,0,1,163.19,91Zm0-.73a.3.3,0,0,0-.2.08.29.29,0,0,0,0,.42.3.3,0,0,0,.41,0,.29.29,0,0,0,0-.42A.3.3,0,0,0,163.19,90.28Z"/><rect class="cls-7" x="162.3" y="97.85" width="0.39" height="1.24" transform="translate(-22.04 143.74) rotate(-45)"/><rect class="cls-7" x="155.09" y="90.65" width="0.39" height="1.24" transform="translate(-19.05 136.54) rotate(-45)"/><path class="cls-7" d="M162.93,99.43a.37.37,0,0,1,.52-.52.36.36,0,0,1,0,.52A.37.37,0,0,1,162.93,99.43Z"/><path class="cls-7" d="M163.19,99.61a.48.48,0,0,1-.31-.13.44.44,0,0,1,.62-.62.43.43,0,0,1,0,.62A.44.44,0,0,1,163.19,99.61Zm0-.73a.3.3,0,0,0-.2.08.29.29,0,0,0,0,.42.3.3,0,0,0,.41,0,.29.29,0,0,0,0-.42A.3.3,0,0,0,163.19,98.88Z"/><path class="cls-7" d="M154.33,90.83a.37.37,0,1,1,.52,0A.37.37,0,0,1,154.33,90.83Z"/><path class="cls-7" d="M154.59,91a.44.44,0,1,1,.31-.75.43.43,0,0,1,0,.62A.44.44,0,0,1,154.59,91Zm0-.73a.3.3,0,0,0-.21.5.31.31,0,0,0,.42,0,.29.29,0,0,0,0-.42A.32.32,0,0,0,154.59,90.28Z"/><rect class="cls-7" x="163.37" y="94.67" width="1.24" height="0.39"/><rect class="cls-7" x="153.18" y="94.67" width="1.24" height="0.39"/><path class="cls-7" d="M165,95.24a.37.37,0,1,1,.36-.37A.37.37,0,0,1,165,95.24Z"/><path class="cls-7" d="M165,95.31a.44.44,0,1,1,.43-.44A.44.44,0,0,1,165,95.31Zm0-.73a.29.29,0,1,0,.29.29A.29.29,0,0,0,165,94.58Z"/><path class="cls-7" d="M152.81,95.24a.37.37,0,1,1,.37-.37A.38.38,0,0,1,152.81,95.24Z"/><path class="cls-7" d="M152.81,95.31a.44.44,0,1,1,.44-.44A.44.44,0,0,1,152.81,95.31Zm0-.73a.29.29,0,1,0,.29.29A.29.29,0,0,0,152.81,94.58Z"/><rect class="cls-7" x="158.7" y="89.15" width="0.39" height="1.24"/><rect class="cls-7" x="158.7" y="99.34" width="0.39" height="1.24"/><path class="cls-7" d="M159.26,88.79a.37.37,0,0,1-.73,0,.37.37,0,1,1,.73,0Z"/><path class="cls-7" d="M158.89,89.23a.44.44,0,1,1,.44-.44A.44.44,0,0,1,158.89,89.23Zm0-.74a.3.3,0,0,0-.29.3.29.29,0,0,0,.29.29.3.3,0,0,0,.3-.29A.31.31,0,0,0,158.89,88.49Z"/><path class="cls-7" d="M159.26,101a.37.37,0,1,1-.73,0,.37.37,0,0,1,.73,0Z"/><path class="cls-7" d="M158.89,101.39a.44.44,0,1,1,.44-.44A.44.44,0,0,1,158.89,101.39Zm0-.73a.29.29,0,0,0-.29.29.3.3,0,0,0,.29.3.31.31,0,0,0,.3-.3A.3.3,0,0,0,158.89,100.66Z"/><path class="cls-8" d="M157.65,97.39a.51.51,0,0,1-.71-.1L156,96.11a.51.51,0,0,1,.1-.71h0a.49.49,0,0,1,.7.09l.91,1.19a.51.51,0,0,1-.09.71Z"/><path class="cls-8" d="M156.73,92.86a.51.51,0,0,1,.22-.68l1.33-.69a.51.51,0,0,1,.68.22h0a.51.51,0,0,1-.22.68l-1.33.69a.5.5,0,0,1-.68-.22Z"/><path class="cls-8" d="M156.68,94.08a.62.62,0,0,1-.62.62.62.62,0,0,1-.62-.62.61.61,0,0,1,.62-.62A.62.62,0,0,1,156.68,94.08Z"/><path class="cls-8" d="M162.14,96.39a.88.88,0,1,1-.87-.87A.87.87,0,0,1,162.14,96.39Z"/><path class="cls-8" d="M162,94.37a.41.41,0,1,1-.41-.41A.4.4,0,0,1,162,94.37Z"/><circle class="cls-8" cx="159.26" cy="97.53" r="0.77"/><path class="cls-8" d="M161.25,92.71a.63.63,0,0,1-1.25,0,.63.63,0,0,1,1.25,0Z"/><path class="cls-8" d="M159.8,94.7a.91.91,0,1,1-.91-.91A.91.91,0,0,1,159.8,94.7Z"/><circle class="cls-7" cx="147.51" cy="97.53" r="3.45"/><rect class="cls-7" x="150.73" y="96.04" width="0.96" height="0.3" transform="translate(-23.72 57.22) rotate(-19.9)"/><rect class="cls-7" x="143.34" y="98.72" width="0.96" height="0.3" transform="translate(-25.07 54.86) rotate(-19.9)"/><path class="cls-7" d="M152,96.2a.28.28,0,0,1-.36-.17.27.27,0,0,1,.17-.36.28.28,0,0,1,.36.17A.28.28,0,0,1,152,96.2Z"/><path class="cls-7" d="M151.92,96.27a.35.35,0,0,1-.32-.22.34.34,0,0,1,.64-.23.33.33,0,0,1-.2.43A.25.25,0,0,1,151.92,96.27Zm0-.56h-.07a.23.23,0,0,0-.14.29.23.23,0,0,0,.29.14.23.23,0,0,0,.14-.29A.24.24,0,0,0,151.92,95.71Z"/><path class="cls-7" d="M143.2,99.4a.29.29,0,1,1,.17-.37A.3.3,0,0,1,143.2,99.4Z"/><path class="cls-7" d="M143.1,99.47a.34.34,0,0,1-.32-.23.36.36,0,0,1,0-.25.32.32,0,0,1,.2-.18.34.34,0,0,1,.43.2.35.35,0,0,1-.2.44Zm0-.57-.08,0a.22.22,0,0,0-.12.11.23.23,0,0,0,0,.18.23.23,0,0,0,.29.13.21.21,0,0,0,.13-.29A.22.22,0,0,0,143.1,98.9Z"/><rect class="cls-7" x="148.56" y="93.76" width="0.96" height="0.3" transform="translate(4.72 194.93) rotate(-67.21)"/><rect class="cls-7" x="145.51" y="101" width="0.96" height="0.3" transform="translate(-3.82 196.56) rotate(-67.21)"/><path class="cls-7" d="M149.59,93.32a.28.28,0,0,1-.52-.22.28.28,0,0,1,.37-.15A.28.28,0,0,1,149.59,93.32Z"/><path class="cls-7" d="M149.33,93.55a.28.28,0,0,1-.13,0,.33.33,0,0,1-.18-.44.34.34,0,0,1,.44-.19.34.34,0,0,1,.18.19.3.3,0,0,1,0,.26A.34.34,0,0,1,149.33,93.55Zm0-.57a.24.24,0,0,0-.21.14.23.23,0,1,0,.42.17.25.25,0,0,0,0-.17.23.23,0,0,0-.12-.12Z"/><path class="cls-7" d="M146,102a.28.28,0,0,1-.36.15.28.28,0,0,1-.16-.37.28.28,0,0,1,.37-.15A.27.27,0,0,1,146,102Z"/><path class="cls-7" d="M145.69,102.2a.31.31,0,0,1-.13,0,.34.34,0,0,1-.18-.44.35.35,0,0,1,.31-.21.35.35,0,0,1,.32.21.39.39,0,0,1,0,.26A.37.37,0,0,1,145.69,102.2Zm0-.57a.22.22,0,0,0-.2.14.22.22,0,0,0,.12.3.23.23,0,0,0,.29-.12.19.19,0,0,0,0-.18.2.2,0,0,0-.12-.12Z"/><rect class="cls-7" x="145.83" y="93.43" width="0.3" height="0.96" transform="translate(-25.07 64.39) rotate(-22.96)"/><rect class="cls-7" x="148.89" y="100.67" width="0.3" height="0.96" transform="translate(-27.65 66.16) rotate(-22.96)"/><path class="cls-7" d="M145.94,93.1a.28.28,0,0,1-.15.37.28.28,0,0,1-.37-.15.28.28,0,0,1,.52-.22Z"/><path class="cls-7" d="M145.68,93.55a.34.34,0,0,1-.31-.21.34.34,0,0,1,.18-.44.31.31,0,0,1,.13,0,.33.33,0,0,1,.31.21.32.32,0,0,1-.18.44A.28.28,0,0,1,145.68,93.55Zm0-.56h-.09a.23.23,0,1,0,.18.42.22.22,0,0,0-.09-.43Z"/><path class="cls-7" d="M149.6,101.74a.28.28,0,0,1-.15.37.28.28,0,0,1-.37-.15.29.29,0,0,1,.15-.37A.28.28,0,0,1,149.6,101.74Z"/><path class="cls-7" d="M149.34,102.19a.34.34,0,0,1-.31-.47.35.35,0,0,1,.18-.18.31.31,0,0,1,.13,0,.33.33,0,0,1,.31.21.32.32,0,0,1-.18.44A.28.28,0,0,1,149.34,102.19Zm0-.56h-.09a.25.25,0,0,0-.12.13.25.25,0,0,0,0,.17.24.24,0,0,0,.3.12.22.22,0,0,0,.12-.3A.23.23,0,0,0,149.34,101.63Z"/><rect class="cls-7" x="143.72" y="95.57" width="0.3" height="0.96" transform="translate(0.63 193.04) rotate(-67.83)"/><rect class="cls-7" x="151" y="98.54" width="0.3" height="0.96" transform="translate(2.42 201.63) rotate(-67.83)"/><path class="cls-7" d="M143.27,95.5a.28.28,0,0,1,.16.37.29.29,0,0,1-.37.15.28.28,0,0,1-.15-.36A.27.27,0,0,1,143.27,95.5Z"/><path class="cls-7" d="M143.17,96.1l-.13,0a.35.35,0,0,1-.19-.45.37.37,0,0,1,.32-.21.27.27,0,0,1,.12,0,.33.33,0,0,1,.19.44A.33.33,0,0,1,143.17,96.1Zm0-.56a.21.21,0,0,0-.21.14.22.22,0,0,0,.12.29.23.23,0,1,0,.17-.42Z"/><path class="cls-7" d="M152,99a.28.28,0,0,1,.16.37.29.29,0,0,1-.53-.21A.28.28,0,0,1,152,99Z"/><path class="cls-7" d="M151.86,99.64l-.13,0a.35.35,0,0,1-.19-.19.39.39,0,0,1,0-.26.35.35,0,0,1,.32-.21.27.27,0,0,1,.12,0,.34.34,0,0,1,.19.18.39.39,0,0,1,0,.26A.34.34,0,0,1,151.86,99.64Zm0-.56a.21.21,0,0,0-.21.14.17.17,0,0,0,0,.17.2.2,0,0,0,.12.12.24.24,0,0,0,.3-.12.28.28,0,0,0,0-.18.3.3,0,0,0-.13-.12Z"/><rect class="cls-7" x="144.25" y="100.16" width="0.96" height="0.3" transform="translate(-28.54 131.7) rotate(-44.99)"/><rect class="cls-7" x="149.81" y="94.6" width="0.96" height="0.3" transform="translate(-22.98 134.01) rotate(-45)"/><path class="cls-7" d="M144,100.65a.28.28,0,1,1,0,.4A.28.28,0,0,1,144,100.65Z"/><path class="cls-7" d="M144.19,101.19a.37.37,0,0,1-.24-.1.37.37,0,0,1,0-.48.34.34,0,0,1,.48,0,.33.33,0,0,1,0,.48A.35.35,0,0,1,144.19,101.19Zm0-.57a.26.26,0,0,0-.16.07.24.24,0,0,0,0,.32.23.23,0,0,0,.32-.32A.24.24,0,0,0,144.19,100.62Z"/><path class="cls-7" d="M150.63,94a.27.27,0,0,1,.4,0,.27.27,0,0,1,0,.39.28.28,0,0,1-.4,0A.27.27,0,0,1,150.63,94Z"/><path class="cls-7" d="M150.83,94.55a.31.31,0,0,1-.24-.1.33.33,0,0,1-.1-.23.33.33,0,0,1,.1-.24.34.34,0,0,1,.48,0,.33.33,0,0,1,0,.47A.33.33,0,0,1,150.83,94.55Zm0-.56a.23.23,0,0,0-.16.06.23.23,0,1,0,.32,0A.23.23,0,0,0,150.83,94Z"/><rect class="cls-7" x="150.14" y="99.83" width="0.3" height="0.96" transform="translate(-26.91 135.65) rotate(-45)"/><rect class="cls-7" x="144.58" y="94.27" width="0.3" height="0.96" transform="translate(-24.61 130.09) rotate(-45)"/><path class="cls-7" d="M150.63,101.05a.28.28,0,1,1,.4,0A.28.28,0,0,1,150.63,101.05Z"/><path class="cls-7" d="M150.83,101.19a.34.34,0,0,1-.24-.58.34.34,0,0,1,.48,0,.34.34,0,0,1,0,.48A.37.37,0,0,1,150.83,101.19Zm0-.57a.23.23,0,0,0-.16.39.23.23,0,0,0,.32,0,.23.23,0,0,0-.16-.39Z"/><path class="cls-7" d="M144,94.41a.27.27,0,0,1,0-.39.27.27,0,0,1,.4,0,.27.27,0,0,1,0,.39A.28.28,0,0,1,144,94.41Z"/><path class="cls-7" d="M144.19,94.55a.33.33,0,0,1-.24-.1.33.33,0,0,1,0-.47.34.34,0,0,1,.48,0,.32.32,0,0,1,0,.47A.31.31,0,0,1,144.19,94.55Zm0-.56a.22.22,0,0,0-.16.38.23.23,0,1,0,.32-.32A.23.23,0,0,0,144.19,94Z"/><rect class="cls-7" x="150.96" y="97.38" width="0.96" height="0.3"/><rect class="cls-7" x="143.1" y="97.38" width="0.96" height="0.3"/><path class="cls-7" d="M152.2,97.81a.28.28,0,0,1-.28-.28.29.29,0,0,1,.57,0A.28.28,0,0,1,152.2,97.81Z"/><path class="cls-7" d="M152.2,97.87a.34.34,0,0,1-.34-.34.35.35,0,0,1,.34-.34.34.34,0,0,1,.34.34A.34.34,0,0,1,152.2,97.87Zm0-.56a.22.22,0,0,0-.22.22.23.23,0,1,0,.22-.22Z"/><path class="cls-7" d="M142.82,97.81a.27.27,0,0,1-.28-.28.28.28,0,1,1,.56,0A.27.27,0,0,1,142.82,97.81Z"/><path class="cls-7" d="M142.82,97.87a.34.34,0,0,1-.34-.34.34.34,0,0,1,.68,0A.34.34,0,0,1,142.82,97.87Zm0-.56a.23.23,0,1,0,.23.22A.23.23,0,0,0,142.82,97.31Z"/><rect class="cls-7" x="147.36" y="93.12" width="0.3" height="0.96"/><rect class="cls-7" x="147.36" y="100.98" width="0.3" height="0.96"/><path class="cls-7" d="M147.79,92.84a.27.27,0,0,1-.28.28.28.28,0,0,1,0-.56A.27.27,0,0,1,147.79,92.84Z"/><path class="cls-7" d="M147.51,93.18a.34.34,0,1,1,.34-.34A.34.34,0,0,1,147.51,93.18Zm0-.57a.23.23,0,0,0-.22.23.23.23,0,1,0,.45,0A.23.23,0,0,0,147.51,92.61Z"/><path class="cls-7" d="M147.79,102.22a.28.28,0,0,1-.28.29.29.29,0,0,1,0-.57A.28.28,0,0,1,147.79,102.22Z"/><path class="cls-7" d="M147.51,102.56a.34.34,0,1,1,.34-.34A.34.34,0,0,1,147.51,102.56Zm0-.56a.22.22,0,0,0-.22.22.23.23,0,1,0,.22-.22Z"/><path class="cls-8" d="M146.55,99.47a.39.39,0,0,1-.55-.07l-.7-.91a.4.4,0,0,1,.08-.55h0a.38.38,0,0,1,.54.07l.7.92a.38.38,0,0,1-.07.54Z"/><path class="cls-8" d="M145.85,96a.38.38,0,0,1,.16-.52l1-.53a.38.38,0,0,1,.52.17h0a.39.39,0,0,1-.17.52l-1,.53a.38.38,0,0,1-.52-.17Z"/><path class="cls-8" d="M145.8,96.92a.48.48,0,1,1-.48-.48A.48.48,0,0,1,145.8,96.92Z"/><circle class="cls-8" cx="149.34" cy="98.71" r="0.67"/><path class="cls-8" d="M149.94,97.14a.32.32,0,1,1-.63,0,.32.32,0,0,1,.63,0Z"/><path class="cls-8" d="M148.39,99.59a.6.6,0,0,1-1.19,0,.6.6,0,1,1,1.19,0Z"/><path class="cls-8" d="M149.33,95.87a.49.49,0,0,1-.48.48.48.48,0,0,1-.48-.48.47.47,0,0,1,.48-.48A.48.48,0,0,1,149.33,95.87Z"/><circle class="cls-8" cx="147.51" cy="97.4" r="0.7"/><circle class="cls-7" cx="108.42" cy="119.43" r="6.07" transform="translate(-40.16 56.64) rotate(-24.86)"/><rect class="cls-7" x="114.08" y="116.81" width="1.68" height="0.53" transform="translate(-33 46.12) rotate(-19.91)"/><rect class="cls-7" x="101.08" y="121.52" width="1.68" height="0.53" transform="translate(-35.37 41.96) rotate(-19.9)"/><path class="cls-7" d="M116.35,117.09a.5.5,0,1,1,.3-.64A.5.5,0,0,1,116.35,117.09Z"/><path class="cls-7" d="M116.18,117.22a.59.59,0,0,1-.56-.4.54.54,0,0,1,0-.45.6.6,0,0,1,1.1,0,.59.59,0,0,1-.36.76A.45.45,0,0,1,116.18,117.22Zm0-1a.35.35,0,0,0-.14,0,.36.36,0,0,0-.22.2.4.4,0,0,0,.49.55.4.4,0,0,0,.24-.51A.39.39,0,0,0,116.18,116.22Z"/><path class="cls-7" d="M100.83,122.71a.5.5,0,1,1,.3-.64A.5.5,0,0,1,100.83,122.71Z"/><path class="cls-7" d="M100.66,122.84a.59.59,0,0,1-.56-.4.54.54,0,0,1,0-.45.6.6,0,0,1,1.1.05.59.59,0,0,1-.36.76A.45.45,0,0,1,100.66,122.84Zm0-1a.35.35,0,0,0-.14,0,.36.36,0,0,0-.22.2.4.4,0,0,0,.49.55.4.4,0,0,0,.24-.51A.39.39,0,0,0,100.66,121.84Z"/><rect class="cls-7" x="110.25" y="112.79" width="1.68" height="0.53" transform="translate(-36.17 171.69) rotate(-67.21)"/><rect class="cls-7" x="104.9" y="125.54" width="1.68" height="0.53" transform="translate(-51.2 174.55) rotate(-67.21)"/><path class="cls-7" d="M112.07,112a.49.49,0,0,1-.65.27.5.5,0,0,1-.26-.65.51.51,0,0,1,.65-.27A.5.5,0,0,1,112.07,112Z"/><path class="cls-7" d="M111.62,112.42a.69.69,0,0,1-.24,0,.59.59,0,0,1-.31-.78.6.6,0,0,1,1.1.46A.59.59,0,0,1,111.62,112.42Zm0-1a.4.4,0,0,0-.37.25.4.4,0,0,0,.21.52A.41.41,0,0,0,112,112a.39.39,0,0,0-.21-.52A.28.28,0,0,0,111.62,111.42Z"/><path class="cls-7" d="M105.68,127.23a.5.5,0,0,1-.65.27.51.51,0,0,1-.27-.65.5.5,0,0,1,.65-.27A.49.49,0,0,1,105.68,127.23Z"/><path class="cls-7" d="M105.22,127.64a.59.59,0,0,1-.23,0,.6.6,0,1,1,.46-1.1.58.58,0,0,1,.32.33.58.58,0,0,1,0,.45A.6.6,0,0,1,105.22,127.64Zm0-1a.4.4,0,0,0-.15.77.41.41,0,0,0,.52-.22.39.39,0,0,0,0-.3.38.38,0,0,0-.37-.25Z"/><rect class="cls-7" x="105.45" y="112.22" width="0.53" height="1.68" transform="translate(-35.73 50.2) rotate(-22.96)"/><rect class="cls-7" x="110.85" y="124.95" width="0.53" height="1.68" transform="translate(-40.27 53.31) rotate(-22.96)"/><path class="cls-7" d="M105.66,111.64a.5.5,0,1,1-.65-.27A.51.51,0,0,1,105.66,111.64Z"/><path class="cls-7" d="M105.2,112.43a.6.6,0,0,1-.23-1.15.62.62,0,0,1,.78.32.61.61,0,0,1,0,.46.61.61,0,0,1-.55.37Zm0-1a.32.32,0,0,0-.16,0,.4.4,0,0,0-.21.52.42.42,0,0,0,.52.21.4.4,0,0,0,.22-.22.39.39,0,0,0,0-.3A.41.41,0,0,0,105.2,111.43Z"/><path class="cls-7" d="M112.1,126.84a.5.5,0,0,1-.27.65.5.5,0,0,1-.39-.92A.51.51,0,0,1,112.1,126.84Z"/><path class="cls-7" d="M111.64,127.63a.6.6,0,0,1-.55-.37.59.59,0,0,1,.32-.78.61.61,0,0,1,.78.32.6.6,0,0,1-.55.83Zm0-1a.45.45,0,0,0-.16,0,.4.4,0,0,0,.31.74.4.4,0,0,0-.15-.77Z"/><rect class="cls-7" x="101.75" y="115.98" width="0.53" height="1.68" transform="translate(-44.67 167.21) rotate(-67.83)"/><rect class="cls-7" x="114.55" y="121.2" width="0.53" height="1.68" transform="translate(-41.52 182.32) rotate(-67.83)"/><path class="cls-7" d="M101,115.86a.49.49,0,0,1,.28.64.5.5,0,0,1-.65.28.49.49,0,0,1-.27-.65A.49.49,0,0,1,101,115.86Z"/><path class="cls-7" d="M100.78,116.91a.59.59,0,0,1-.23,0,.59.59,0,1,1,.45-1.1.59.59,0,0,1-.22,1.14Zm0-1a.39.39,0,1,0,.15,0A.4.4,0,0,0,100.78,115.92Z"/><path class="cls-7" d="M116.25,122.09a.49.49,0,0,1,.27.64.5.5,0,0,1-.65.28.51.51,0,0,1-.27-.65A.49.49,0,0,1,116.25,122.09Z"/><path class="cls-7" d="M116.06,123.14a.54.54,0,0,1-.22,0,.6.6,0,1,1,.77-.33A.58.58,0,0,1,116.06,123.14Zm0-1a.39.39,0,0,0-.37.25.39.39,0,0,0,.22.51.4.4,0,0,0,.52-.21.39.39,0,0,0-.22-.52A.4.4,0,0,0,116.06,122.15Z"/><rect class="cls-7" x="102.69" y="124.05" width="1.68" height="0.53" transform="translate(-57.58 109.6) rotate(-44.99)"/><rect class="cls-7" x="112.47" y="114.28" width="1.68" height="0.53" transform="translate(-47.81 113.65) rotate(-44.99)"/><path class="cls-7" d="M102.23,124.92a.49.49,0,0,1,.7.7.49.49,0,0,1-.7-.7Z"/><path class="cls-7" d="M102.58,125.86a.59.59,0,0,1-.42-.17.59.59,0,0,1,.84-.84.58.58,0,0,1,0,.84A.59.59,0,0,1,102.58,125.86Zm0-1a.39.39,0,0,0-.28.12.4.4,0,0,0,.56.56.39.39,0,0,0,0-.56A.36.36,0,0,0,102.58,124.87Z"/><circle class="cls-7" cx="114.25" cy="113.6" r="0.5"/><path class="cls-7" d="M114.25,114.19a.63.63,0,0,1-.42-.17.61.61,0,0,1,0-.85.6.6,0,1,1,.42,1Zm0-1a.43.43,0,0,0-.28.11.4.4,0,1,0,.57.57.43.43,0,0,0,.11-.28.38.38,0,0,0-.4-.4Z"/><rect class="cls-7" x="113.04" y="123.48" width="0.53" height="1.68" transform="translate(-54.72 116.53) rotate(-45)"/><rect class="cls-7" x="103.26" y="113.7" width="0.53" height="1.68" transform="translate(-50.67 106.75) rotate(-45)"/><path class="cls-7" d="M113.9,125.62a.5.5,0,0,1,0-.7.5.5,0,0,1,.71,0,.5.5,0,0,1,0,.7A.51.51,0,0,1,113.9,125.62Z"/><path class="cls-7" d="M114.25,125.86a.63.63,0,0,1-.42-.17.6.6,0,0,1,0-.84.61.61,0,0,1,.85,0,.6.6,0,0,1,0,.84A.63.63,0,0,1,114.25,125.86Zm0-1a.39.39,0,0,0-.28.12.4.4,0,0,0,0,.56.42.42,0,0,0,.57,0,.43.43,0,0,0,.11-.28.39.39,0,0,0-.11-.28A.4.4,0,0,0,114.25,124.87Z"/><path class="cls-7" d="M102.23,114a.51.51,0,0,1,0-.71.5.5,0,0,1,.7,0,.5.5,0,0,1,0,.71A.5.5,0,0,1,102.23,114Z"/><path class="cls-7" d="M102.58,114.19a.59.59,0,0,1-.42-.17.61.61,0,0,1,0-.85.62.62,0,0,1,.84,0,.6.6,0,0,1-.42,1Zm0-1a.43.43,0,0,0-.28.11.42.42,0,0,0,0,.57.4.4,0,0,0,.56,0,.4.4,0,0,0,0-.57A.39.39,0,0,0,102.58,113.2Z"/><rect class="cls-7" x="114.49" y="119.16" width="1.68" height="0.53"/><rect class="cls-7" x="100.66" y="119.16" width="1.68" height="0.53"/><path class="cls-7" d="M116.67,119.93a.5.5,0,0,1-.5-.5.51.51,0,0,1,.5-.5.5.5,0,0,1,.5.5A.5.5,0,0,1,116.67,119.93Z"/><path class="cls-7" d="M116.67,120a.59.59,0,0,1-.59-.6.58.58,0,0,1,.59-.59.59.59,0,0,1,.6.59A.6.6,0,0,1,116.67,120Zm0-1a.4.4,0,1,0,.4.4A.4.4,0,0,0,116.67,119Z"/><path class="cls-7" d="M100.17,119.93a.5.5,0,0,1-.5-.5.5.5,0,1,1,1,0A.49.49,0,0,1,100.17,119.93Z"/><path class="cls-7" d="M100.17,120a.6.6,0,0,1-.6-.6.6.6,0,0,1,1.19,0A.6.6,0,0,1,100.17,120Zm0-1a.4.4,0,0,0,0,.8.4.4,0,0,0,0-.8Z"/><rect class="cls-7" x="108.15" y="111.68" width="0.53" height="1.68"/><rect class="cls-7" x="108.15" y="125.5" width="0.53" height="1.68"/><path class="cls-7" d="M108.92,111.18a.51.51,0,0,1-.5.5.5.5,0,0,1-.5-.5.5.5,0,0,1,.5-.5A.5.5,0,0,1,108.92,111.18Z"/><path class="cls-7" d="M108.42,111.77a.59.59,0,0,1-.6-.59.6.6,0,0,1,.6-.6.59.59,0,0,1,.59.6A.58.58,0,0,1,108.42,111.77Zm0-1a.4.4,0,1,0,.4.4A.4.4,0,0,0,108.42,110.78Z"/><path class="cls-7" d="M108.92,127.68a.5.5,0,0,1-.5.5.5.5,0,1,1,.5-.5Z"/><path class="cls-7" d="M108.42,128.28a.6.6,0,1,1,0-1.19.6.6,0,0,1,0,1.19Zm0-1a.39.39,0,0,0-.4.39.4.4,0,1,0,.8,0A.39.39,0,0,0,108.42,127.29Z"/><path class="cls-8" d="M106.73,122.85a.69.69,0,0,1-1-.13l-1.23-1.61a.68.68,0,0,1,.13-1h0a.69.69,0,0,1,1,.13l1.23,1.61a.69.69,0,0,1-.13,1Z"/><path class="cls-8" d="M105.49,116.71a.69.69,0,0,1,.29-.93l1.8-.93a.68.68,0,0,1,.92.3h0a.67.67,0,0,1-.29.92l-1.8.93a.69.69,0,0,1-.92-.29Z"/><path class="cls-8" d="M105.41,118.36a.84.84,0,1,1-1.68,0,.84.84,0,1,1,1.68,0Z"/><circle class="cls-8" cx="111.64" cy="121.5" r="1.19"/><path class="cls-8" d="M112.68,118.75a.55.55,0,1,1-.54-.55A.55.55,0,0,1,112.68,118.75Z"/><path class="cls-8" d="M110,123a1,1,0,1,1-1-1A1,1,0,0,1,110,123Z"/><path class="cls-8" d="M111.61,116.5a.84.84,0,1,1-.84-.84A.84.84,0,0,1,111.61,116.5Z"/><circle class="cls-8" cx="108.42" cy="119.2" r="1.23"/><circle class="cls-7" cx="121.57" cy="68.22" r="6.07" transform="translate(27.06 170.7) rotate(-76.62)"/><rect class="cls-7" x="127.23" y="65.6" width="1.68" height="0.53" transform="translate(-14.77 47.53) rotate(-19.9)"/><rect class="cls-7" x="114.23" y="70.31" width="1.68" height="0.53" transform="translate(-17.15 43.4) rotate(-19.91)"/><path class="cls-7" d="M129.5,65.88a.49.49,0,0,1-.63-.3.49.49,0,0,1,.29-.63.5.5,0,0,1,.64.29A.5.5,0,0,1,129.5,65.88Z"/><path class="cls-7" d="M129.33,66a.61.61,0,0,1-.56-.39.66.66,0,0,1,0-.46.65.65,0,0,1,.34-.31.6.6,0,0,1,.76.36.58.58,0,0,1-.35.76A.52.52,0,0,1,129.33,66Zm0-1a.31.31,0,0,0-.13,0,.41.41,0,0,0-.23.2.42.42,0,0,0,0,.31.41.41,0,0,0,.51.24.4.4,0,0,0,.24-.51A.41.41,0,0,0,129.33,65Z"/><path class="cls-7" d="M114,71.5a.49.49,0,0,1-.63-.3.49.49,0,0,1,.29-.63.5.5,0,0,1,.64.29A.5.5,0,0,1,114,71.5Z"/><path class="cls-7" d="M113.81,71.63a.6.6,0,1,1,.56-.8.58.58,0,0,1-.35.76A.52.52,0,0,1,113.81,71.63Zm0-1a.31.31,0,0,0-.13,0,.39.39,0,0,0-.24.51.41.41,0,0,0,.51.24.4.4,0,0,0,.24-.51A.41.41,0,0,0,113.81,70.63Z"/><rect class="cls-7" x="123.41" y="61.58" width="1.68" height="0.53" transform="translate(19.11 152.45) rotate(-67.22)"/><rect class="cls-7" x="118.05" y="74.33" width="1.68" height="0.53" transform="translate(4.06 155.31) rotate(-67.21)"/><path class="cls-7" d="M125.23,60.81a.5.5,0,1,1-.27-.65A.49.49,0,0,1,125.23,60.81Z"/><path class="cls-7" d="M124.77,61.21a.6.6,0,0,1-.55-.83.61.61,0,0,1,.78-.32.6.6,0,0,1,.32.78A.58.58,0,0,1,124.77,61.21Zm0-1a.4.4,0,0,0-.37.24.4.4,0,0,0,.22.52.4.4,0,0,0,.52-.21.4.4,0,0,0-.22-.52A.37.37,0,0,0,124.77,60.22Z"/><path class="cls-7" d="M118.84,76a.5.5,0,1,1-.92-.38.5.5,0,0,1,.92.38Z"/><path class="cls-7" d="M118.38,76.43a.61.61,0,0,1-.55-.37.59.59,0,1,1,.55.37Zm0-1a.4.4,0,0,0-.37.25.39.39,0,0,0,0,.3.38.38,0,0,0,.21.22.41.41,0,0,0,.52-.21.4.4,0,0,0-.36-.56Z"/><rect class="cls-7" x="118.61" y="61.01" width="0.53" height="1.68" transform="translate(-14.71 51.28) rotate(-22.96)"/><rect class="cls-7" x="124" y="73.75" width="0.53" height="1.68" transform="translate(-19.25 54.39) rotate(-22.96)"/><path class="cls-7" d="M118.81,60.43a.5.5,0,0,1-.91.39.49.49,0,0,1,.26-.65A.5.5,0,0,1,118.81,60.43Z"/><path class="cls-7" d="M118.35,61.22a.58.58,0,0,1-.54-.36.6.6,0,0,1,.31-.79.61.61,0,0,1,.78.32.59.59,0,0,1-.31.78A.69.69,0,0,1,118.35,61.22Zm0-1-.15,0a.4.4,0,1,0,.15,0Z"/><path class="cls-7" d="M125.25,75.63a.5.5,0,0,1-.26.65.49.49,0,0,1-.65-.26.5.5,0,0,1,.26-.66A.51.51,0,0,1,125.25,75.63Z"/><path class="cls-7" d="M124.79,76.42a.59.59,0,0,1-.55-.37.58.58,0,0,1,0-.45.59.59,0,0,1,1.1,0,.59.59,0,0,1-.31.78A.69.69,0,0,1,124.79,76.42Zm0-1a.28.28,0,0,0-.15,0,.38.38,0,0,0-.22.21.42.42,0,0,0,0,.31.41.41,0,0,0,.52.21.4.4,0,0,0,.21-.52A.4.4,0,0,0,124.79,75.42Z"/><rect class="cls-7" x="114.9" y="64.77" width="0.53" height="1.68" transform="translate(10.95 147.51) rotate(-67.83)"/><rect class="cls-7" x="127.71" y="69.99" width="0.53" height="1.68" transform="translate(14.09 162.62) rotate(-67.83)"/><path class="cls-7" d="M114.12,64.65a.5.5,0,1,1-.65.27A.49.49,0,0,1,114.12,64.65Z"/><path class="cls-7" d="M113.93,65.7a.54.54,0,0,1-.22,0,.59.59,0,0,1-.33-.78.61.61,0,0,1,.78-.32.59.59,0,0,1-.23,1.14Zm0-1a.4.4,0,0,0-.37.25.4.4,0,1,0,.52-.22A.4.4,0,0,0,113.93,64.71Z"/><path class="cls-7" d="M129.4,70.88a.49.49,0,0,1,.28.64.5.5,0,0,1-.65.28.49.49,0,0,1-.27-.65A.49.49,0,0,1,129.4,70.88Z"/><path class="cls-7" d="M129.22,71.93a.59.59,0,0,1-.23,0,.59.59,0,1,1,.45-1.1.59.59,0,0,1-.22,1.14Zm0-1a.39.39,0,0,0-.37.25.4.4,0,0,0,.22.52.41.41,0,0,0,.52-.22.4.4,0,0,0-.37-.55Z"/><rect class="cls-7" x="115.84" y="72.84" width="1.68" height="0.53" transform="translate(-17.52 103.91) rotate(-44.99)"/><rect class="cls-7" x="125.62" y="63.07" width="1.68" height="0.53" transform="translate(-7.75 107.96) rotate(-44.99)"/><path class="cls-7" d="M115.39,73.71a.48.48,0,0,1,.7,0,.49.49,0,1,1-.7.7A.48.48,0,0,1,115.39,73.71Z"/><path class="cls-7" d="M115.74,74.65a.59.59,0,0,1-.42-.17.58.58,0,0,1,0-.84.59.59,0,0,1,.84.84A.59.59,0,0,1,115.74,74.65Zm0-1a.36.36,0,0,0-.28.12.39.39,0,0,0,0,.56.4.4,0,0,0,.56-.56A.39.39,0,0,0,115.74,73.66Z"/><path class="cls-7" d="M127.06,62a.49.49,0,0,1,.7.7.5.5,0,0,1-.7,0A.48.48,0,0,1,127.06,62Z"/><path class="cls-7" d="M127.41,63a.59.59,0,0,1-.42-.17.59.59,0,1,1,.84,0A.59.59,0,0,1,127.41,63Zm0-1a.36.36,0,0,0-.28.12.39.39,0,0,0,0,.56.4.4,0,0,0,.56,0,.39.39,0,0,0,0-.56A.36.36,0,0,0,127.41,62Z"/><rect class="cls-7" x="126.19" y="72.27" width="0.53" height="1.68" transform="translate(-14.66 110.83) rotate(-45)"/><rect class="cls-7" x="116.42" y="62.49" width="0.53" height="1.68" transform="translate(-10.61 101.06) rotate(-45)"/><circle class="cls-7" cx="127.41" cy="74.06" r="0.5"/><path class="cls-7" d="M127.41,74.65a.59.59,0,0,1-.42-.17.59.59,0,1,1,.84,0A.59.59,0,0,1,127.41,74.65Zm0-1a.36.36,0,0,0-.28.12.39.39,0,0,0,0,.56.4.4,0,0,0,.56,0,.39.39,0,0,0,0-.56A.36.36,0,0,0,127.41,73.66Z"/><path class="cls-7" d="M115.39,62.74a.49.49,0,0,1,.7-.7.49.49,0,1,1-.7.7Z"/><path class="cls-7" d="M115.74,63a.59.59,0,0,1-.42-.17.58.58,0,0,1,0-.84.59.59,0,0,1,.84.84A.59.59,0,0,1,115.74,63Zm0-1a.36.36,0,0,0-.28.12.39.39,0,0,0,0,.56.4.4,0,0,0,.56-.56A.39.39,0,0,0,115.74,62Z"/><rect class="cls-7" x="127.64" y="67.96" width="1.68" height="0.53"/><rect class="cls-7" x="113.82" y="67.96" width="1.68" height="0.53"/><path class="cls-7" d="M129.83,68.72a.5.5,0,1,1,.49-.5A.5.5,0,0,1,129.83,68.72Z"/><path class="cls-7" d="M129.83,68.82a.6.6,0,0,1-.6-.6.59.59,0,0,1,.6-.59.58.58,0,0,1,.59.59A.59.59,0,0,1,129.83,68.82Zm0-1a.4.4,0,0,0,0,.8.4.4,0,0,0,0-.8Z"/><path class="cls-7" d="M113.32,68.72a.5.5,0,1,1,0-1,.5.5,0,1,1,0,1Z"/><path class="cls-7" d="M113.32,68.82a.6.6,0,0,1-.6-.6.6.6,0,0,1,1.2,0A.6.6,0,0,1,113.32,68.82Zm0-1a.4.4,0,1,0,.4.4A.4.4,0,0,0,113.32,67.82Z"/><rect class="cls-7" x="121.31" y="60.47" width="0.53" height="1.68"/><rect class="cls-7" x="121.31" y="74.29" width="0.53" height="1.68"/><path class="cls-7" d="M122.07,60a.5.5,0,1,1-.5-.5A.5.5,0,0,1,122.07,60Z"/><path class="cls-7" d="M121.57,60.57a.6.6,0,1,1,.6-.6A.6.6,0,0,1,121.57,60.57Zm0-1a.4.4,0,0,0,0,.8.4.4,0,0,0,0-.8Z"/><path class="cls-7" d="M122.07,76.48a.5.5,0,1,1-.5-.5A.49.49,0,0,1,122.07,76.48Z"/><path class="cls-7" d="M121.57,77.07a.6.6,0,1,1,.6-.59A.6.6,0,0,1,121.57,77.07Zm0-1a.39.39,0,0,0-.39.4.38.38,0,0,0,.39.39.39.39,0,0,0,.4-.39A.4.4,0,0,0,121.57,76.08Z"/><path class="cls-8" d="M119.88,71.64a.69.69,0,0,1-1-.13l-1.23-1.61a.69.69,0,0,1,.13-1h0a.69.69,0,0,1,1,.13L120,70.68a.69.69,0,0,1-.13,1Z"/><path class="cls-8" d="M118.64,65.5a.68.68,0,0,1,.3-.92l1.8-.94a.68.68,0,0,1,.92.3h0a.69.69,0,0,1-.29.92l-1.8.93a.69.69,0,0,1-.93-.29Z"/><path class="cls-8" d="M118.57,67.15a.85.85,0,1,1-.84-.85A.85.85,0,0,1,118.57,67.15Z"/><circle class="cls-8" cx="124.79" cy="70.29" r="1.19"/><path class="cls-8" d="M125.84,67.54a.55.55,0,1,1-.55-.55A.55.55,0,0,1,125.84,67.54Z"/><circle class="cls-8" cx="122.07" cy="71.84" r="1.05"/><path class="cls-8" d="M124.77,65.3a.85.85,0,1,1-.84-.85A.85.85,0,0,1,124.77,65.3Z"/><path class="cls-8" d="M122.8,68a1.23,1.23,0,1,1-1.23-1.23A1.23,1.23,0,0,1,122.8,68Z"/><circle class="cls-7" cx="171.54" cy="124.37" r="4.94"/><rect class="cls-7" x="176.14" y="122.24" width="1.37" height="0.44" transform="translate(-31.13 67.52) rotate(-19.9)"/><rect class="cls-7" x="165.56" y="126.07" width="1.37" height="0.44" transform="translate(-33.07 64.15) rotate(-19.91)"/><path class="cls-7" d="M178,122.47a.42.42,0,0,1-.52-.25.41.41,0,0,1,.77-.27A.42.42,0,0,1,178,122.47Z"/><path class="cls-7" d="M177.86,122.57a.48.48,0,0,1-.17-.94.49.49,0,0,1,.62.29.49.49,0,0,1-.29.62A.45.45,0,0,1,177.86,122.57Zm0-.81-.12,0a.33.33,0,1,0,.23.61.33.33,0,0,0,.19-.41A.33.33,0,0,0,177.86,121.76Z"/><path class="cls-7" d="M165.36,127a.4.4,0,0,1-.52-.24.41.41,0,0,1,.24-.52.4.4,0,1,1,.28.76Z"/><path class="cls-7" d="M165.22,127.15a.49.49,0,0,1-.44-.69.51.51,0,0,1,.28-.26.5.5,0,0,1,.62.3.49.49,0,0,1-.29.62A.51.51,0,0,1,165.22,127.15Zm0-.81a.22.22,0,0,0-.11,0,.32.32,0,0,0-.18.16.31.31,0,0,0,0,.25.32.32,0,1,0,.61-.22A.33.33,0,0,0,165.22,126.34Z"/><rect class="cls-7" x="173.03" y="118.97" width="1.37" height="0.44" transform="translate(-3.45 233.18) rotate(-67.21)"/><rect class="cls-7" x="168.67" y="129.34" width="1.37" height="0.44" transform="translate(-15.7 235.5) rotate(-67.21)"/><path class="cls-7" d="M174.51,118.34a.4.4,0,1,1-.21-.53A.4.4,0,0,1,174.51,118.34Z"/><path class="cls-7" d="M174.14,118.66a.63.63,0,0,1-.19,0,.49.49,0,0,1,.38-.9.49.49,0,0,1,.26.64A.48.48,0,0,1,174.14,118.66Zm0-.8a.32.32,0,0,0-.3.19.33.33,0,0,0,.18.43.32.32,0,0,0,.42-.17.33.33,0,0,0-.17-.43A.3.3,0,0,0,174.14,117.86Z"/><path class="cls-7" d="M169.31,130.72a.4.4,0,0,1-.53.22.41.41,0,1,1,.31-.75A.4.4,0,0,1,169.31,130.72Z"/><path class="cls-7" d="M168.94,131.05a.41.41,0,0,1-.19,0,.48.48,0,0,1-.26-.63.49.49,0,0,1,.63-.26.47.47,0,0,1,.26.63A.46.46,0,0,1,168.94,131.05Zm0-.81a.33.33,0,0,0-.3.2.28.28,0,0,0,0,.25.31.31,0,0,0,.59,0,.32.32,0,0,0-.17-.42A.27.27,0,0,0,168.94,130.24Z"/><rect class="cls-7" x="169.13" y="118.51" width="0.44" height="1.37" transform="translate(-33.08 75.51) rotate(-22.96)"/><rect class="cls-7" x="173.52" y="128.87" width="0.44" height="1.37" transform="translate(-36.77 78.04) rotate(-22.96)"/><path class="cls-7" d="M169.29,118a.4.4,0,1,1-.53-.22A.41.41,0,0,1,169.29,118Z"/><path class="cls-7" d="M168.92,118.67a.48.48,0,0,1-.45-.29.48.48,0,0,1,0-.37.48.48,0,0,1,.89,0,.48.48,0,0,1-.25.63A.43.43,0,0,1,168.92,118.67Zm0-.81a.28.28,0,0,0-.13,0,.3.3,0,0,0-.17.18.29.29,0,0,0,0,.24.34.34,0,0,0,.42.18.33.33,0,0,0,.18-.43A.34.34,0,0,0,168.92,117.86Z"/><path class="cls-7" d="M174.53,130.4a.4.4,0,1,1-.53-.21A.4.4,0,0,1,174.53,130.4Z"/><path class="cls-7" d="M174.16,131a.48.48,0,0,1-.45-.29.49.49,0,0,1,.26-.64.49.49,0,1,1,.38.9A.63.63,0,0,1,174.16,131Zm0-.8a.3.3,0,0,0-.13,0,.33.33,0,1,0,.43.17A.32.32,0,0,0,174.16,130.24Z"/><rect class="cls-7" x="166.11" y="121.56" width="0.44" height="1.37" transform="matrix(0.38, -0.93, 0.93, 0.38, -9.65, 230.15)"/><rect class="cls-7" x="176.53" y="125.81" width="0.44" height="1.37" transform="translate(-7.09 242.45) rotate(-67.83)"/><path class="cls-7" d="M165.47,121.46a.41.41,0,0,1-.31.75.41.41,0,0,1-.22-.52A.41.41,0,0,1,165.47,121.46Z"/><path class="cls-7" d="M165.32,122.32a.58.58,0,0,1-.19,0,.48.48,0,0,1-.26-.63.48.48,0,0,1,.9.36A.5.5,0,0,1,165.32,122.32Zm0-.81a.31.31,0,0,0-.3.21.26.26,0,0,0,0,.24.3.3,0,0,0,.17.18.34.34,0,0,0,.43-.18.36.36,0,0,0,0-.25.33.33,0,0,0-.18-.17A.27.27,0,0,0,165.32,121.51Z"/><path class="cls-7" d="M177.91,126.53a.4.4,0,0,1,.22.53.4.4,0,0,1-.74-.3A.4.4,0,0,1,177.91,126.53Z"/><path class="cls-7" d="M177.76,127.39a.57.57,0,0,1-.18,0,.49.49,0,0,1-.27-.26.48.48,0,0,1,0-.37.49.49,0,0,1,.63-.27.49.49,0,0,1,.27.26.49.49,0,0,1-.45.67Zm0-.81a.32.32,0,0,0-.3.21.33.33,0,0,0,0,.24.32.32,0,0,0,.18.18.34.34,0,0,0,.42-.18.36.36,0,0,0,0-.25.3.3,0,0,0-.18-.17A.27.27,0,0,0,177.76,126.58Z"/><rect class="cls-7" x="166.87" y="128.14" width="1.37" height="0.44" transform="translate(-41.69 156.04) rotate(-44.99)"/><rect class="cls-7" x="174.83" y="120.18" width="1.37" height="0.44" transform="translate(-33.73 159.35) rotate(-45)"/><path class="cls-7" d="M166.5,128.84a.4.4,0,1,1,0,.57A.4.4,0,0,1,166.5,128.84Z"/><path class="cls-7" d="M166.79,129.61a.52.52,0,0,1-.35-.14.5.5,0,0,1-.14-.35.48.48,0,0,1,.14-.34.51.51,0,0,1,.69,0,.49.49,0,0,1,0,.69A.48.48,0,0,1,166.79,129.61Zm0-.81a.32.32,0,0,0-.23.09.37.37,0,0,0-.1.23.33.33,0,0,0,.1.23.32.32,0,0,0,.46,0,.34.34,0,0,0,0-.46A.33.33,0,0,0,166.79,128.8Z"/><path class="cls-7" d="M176,119.34a.4.4,0,1,1,0,.57A.4.4,0,0,1,176,119.34Z"/><path class="cls-7" d="M176.29,120.11A.48.48,0,0,1,176,120a.49.49,0,0,1-.15-.35.45.45,0,0,1,.15-.34.5.5,0,0,1,.68,0,.48.48,0,0,1,.14.34.52.52,0,0,1-.14.35A.48.48,0,0,1,176.29,120.11Zm0-.81a.32.32,0,0,0-.23.09.34.34,0,0,0-.1.23.33.33,0,0,0,.1.23.34.34,0,0,0,.46,0,.32.32,0,0,0,.09-.23.33.33,0,0,0-.09-.23A.32.32,0,0,0,176.29,119.3Z"/><rect class="cls-7" x="175.3" y="127.67" width="0.44" height="1.37" transform="translate(-39.35 161.7) rotate(-45)"/><rect class="cls-7" x="167.34" y="119.71" width="0.44" height="1.37" transform="translate(-36.05 153.74) rotate(-45)"/><path class="cls-7" d="M176,129.41a.4.4,0,1,1,.57,0A.4.4,0,0,1,176,129.41Z"/><path class="cls-7" d="M176.29,129.61a.48.48,0,0,1-.34-.14.47.47,0,0,1-.15-.35.45.45,0,0,1,.15-.34.5.5,0,0,1,.68,0,.48.48,0,0,1,.14.34.5.5,0,0,1-.14.35A.48.48,0,0,1,176.29,129.61Zm0-.81a.32.32,0,0,0-.23.09.37.37,0,0,0-.1.23.33.33,0,0,0,.1.23.32.32,0,0,0,.46,0,.32.32,0,0,0,.09-.23.35.35,0,0,0-.09-.23A.32.32,0,0,0,176.29,128.8Z"/><path class="cls-7" d="M166.5,119.91a.4.4,0,1,1,.57,0A.4.4,0,0,1,166.5,119.91Z"/><path class="cls-7" d="M166.79,120.11a.48.48,0,0,1-.49-.49.45.45,0,0,1,.15-.34.5.5,0,0,1,.68,0,.49.49,0,0,1,0,.69A.48.48,0,0,1,166.79,120.11Zm0-.81a.32.32,0,0,0-.23.09.34.34,0,0,0-.1.23.33.33,0,0,0,.1.23.33.33,0,1,0,.46-.46A.33.33,0,0,0,166.79,119.3Z"/><rect class="cls-7" x="176.48" y="124.16" width="1.37" height="0.44"/><rect class="cls-7" x="165.22" y="124.16" width="1.37" height="0.44"/><circle class="cls-7" cx="178.26" cy="124.37" r="0.4"/><path class="cls-7" d="M178.26,124.86a.49.49,0,1,1,.48-.49A.49.49,0,0,1,178.26,124.86Zm0-.81a.32.32,0,0,0-.33.32.33.33,0,0,0,.33.33.32.32,0,0,0,.32-.33A.32.32,0,0,0,178.26,124.05Z"/><circle class="cls-7" cx="164.82" cy="124.37" r="0.4"/><path class="cls-7" d="M164.82,124.86a.49.49,0,0,1,0-1,.49.49,0,1,1,0,1Zm0-.81a.32.32,0,0,0-.32.32.32.32,0,1,0,.64,0A.32.32,0,0,0,164.82,124.05Z"/><rect class="cls-7" x="171.32" y="118.06" width="0.44" height="1.37"/><rect class="cls-7" x="171.32" y="129.32" width="0.44" height="1.37"/><circle class="cls-7" cx="171.54" cy="117.66" r="0.4"/><path class="cls-7" d="M171.54,118.14a.49.49,0,1,1,0-1,.49.49,0,0,1,0,1Zm0-.81a.33.33,0,1,0,0,.65.33.33,0,0,0,0-.65Z"/><circle class="cls-7" cx="171.54" cy="131.09" r="0.4"/><path class="cls-7" d="M171.54,131.58a.49.49,0,0,1-.49-.49.48.48,0,0,1,.49-.48.47.47,0,0,1,.48.48A.48.48,0,0,1,171.54,131.58Zm0-.81a.32.32,0,0,0-.33.32.33.33,0,0,0,.33.33.32.32,0,0,0,.32-.33A.32.32,0,0,0,171.54,130.77Z"/><path class="cls-8" d="M170.16,127.15a.56.56,0,0,1-.78-.1l-1-1.31a.55.55,0,0,1,.1-.78h0a.55.55,0,0,1,.78.1l1,1.31a.56.56,0,0,1-.11.78Z"/><path class="cls-8" d="M169.15,122.16a.57.57,0,0,1,.24-.76l1.47-.75a.55.55,0,0,1,.75.23h0a.57.57,0,0,1-.24.76l-1.47.75a.55.55,0,0,1-.75-.23Z"/><circle class="cls-8" cx="168.41" cy="123.5" r="0.69"/><path class="cls-8" d="M175.12,126.06a1,1,0,0,1-1.93,0,1,1,0,1,1,1.93,0Z"/><path class="cls-8" d="M175,123.82a.45.45,0,1,1-.45-.45A.45.45,0,0,1,175,123.82Z"/><circle class="cls-8" cx="171.94" cy="127.31" r="0.85"/><path class="cls-8" d="M174.14,122a.69.69,0,0,1-.69.69.69.69,0,0,1,0-1.38A.69.69,0,0,1,174.14,122Z"/><path class="cls-8" d="M172.54,124.18a1,1,0,1,1-1-1A1,1,0,0,1,172.54,124.18Z"/><rect class="cls-7" x="67.56" y="154.51" width="6.84" height="14.84"/><rect class="cls-7" x="78.81" y="148.24" width="6.84" height="21.1"/><rect class="cls-7" x="90.75" y="144.3" width="6.84" height="25.05"/><rect class="cls-7" x="139.22" y="154.51" width="6.84" height="14.84"/><rect class="cls-7" x="127.97" y="148.24" width="6.84" height="21.1"/><rect class="cls-7" x="116.03" y="144.3" width="6.84" height="25.05"/><rect class="cls-7" x="103.33" y="138.97" width="6.84" height="30.38"/><path class="cls-9" d="M151.81,171.16H60.71a1.82,1.82,0,1,1,0-3.63h91.1a1.82,1.82,0,1,1,0,3.63Z"/></g></g></g></svg>